<?xml version="1.0" encoding="utf-8"?>
<!-- Generator: Adobe Illustrator 21.1.0, SVG Export Plug-In . SVG Version: 6.00 Build 0)  -->
<svg version="1.1" id="Layer_1" xmlns="http://www.w3.org/2000/svg" xmlns:xlink="http://www.w3.org/1999/xlink" x="0px" y="0px"
	 width="1920px" height="36.3px" viewBox="0 0 1920 36.3" style="enable-background:new 0 0 1920 36.3;" xml:space="preserve">
<style type="text/css">
	.st0{fill:#814C4C;}
</style>
<path class="st0" d="M0,8.3c0,0,62-7,69-4s18,3,24,4s30,1,33,0s29-3,35-5s10,3,23,6s29,6,39,7s26-2,32-4s20-3,24-3s10,2,24,4
	s50,3,60,3s-4-7,32-9s65-6,74-4s118,10,122,13s21-7,26-7s10,10,29,8s51-11,55-12s19,2,23,2s26,2,33,3s23-3,29-4s15-5,21-4
	s86,9,105,8s35-1,55-5s25,4,31,5s11-2,22,0s13-1,24,0s20-1,27,0s3,9,20,0s14-7,23-8s31,11,40,8s11-1,27-4s31-1,42-4s30,3,36,0
	s24,2,30,7s75,2,80,0s86-13,100-8s15,7,46,7s45-4,54-4s27,6,33,9s-9,7,37,4s34-12,60-8s74,10,80,6s-5-14,16-9s28,8,36,9s19,8,27,3
	s1-7,12-8s19,3,32,0s18-6,18-6v32H0V8.3z"/>
</svg>
