<svg xmlns="http://www.w3.org/2000/svg" viewBox="0 0 43.1 36"><defs><style>.a{fill:#824d4c;}</style></defs><title>heater</title><path class="a" d="M41.66,2.37H36.93A1.43,1.43,0,0,0,35.5,3.8V7.1H33.63V4.3A4.31,4.31,0,0,0,29.33,0H28A4.28,4.28,0,0,0,25.1,1.1,4.29,4.29,0,0,0,22.23,0H20.87A4.29,4.29,0,0,0,18,1.1,4.29,4.29,0,0,0,15.13,0H13.77A4.28,4.28,0,0,0,10.9,1.1,4.29,4.29,0,0,0,8,0H6.67a4.31,4.31,0,0,0-4.3,4.3V7.1H1.43a1.43,1.43,0,0,0,0,2.87h.93v13.7H1.43a1.43,1.43,0,0,0,0,2.87h.93V31.7A4.31,4.31,0,0,0,6.67,36H8a4.29,4.29,0,0,0,2.87-1.1A4.29,4.29,0,0,0,13.77,36h1.36A4.29,4.29,0,0,0,18,34.9,4.29,4.29,0,0,0,20.87,36h1.36a4.29,4.29,0,0,0,2.87-1.1A4.29,4.29,0,0,0,28,36h1.36a4.31,4.31,0,0,0,4.3-4.3V26.53h.92a4.49,4.49,0,0,1,1.8.48,2.86,2.86,0,0,1,1.51,2.82,1.43,1.43,0,0,0,2.87,0,6,6,0,0,0-6.17-6.17h-.93V10H35.5v.93a1.44,1.44,0,0,0,1.43,1.43h4.73A1.43,1.43,0,0,0,43.1,10.9V3.8a1.44,1.44,0,0,0-1.44-1.43ZM8,33.13H6.67A1.44,1.44,0,0,1,5.23,31.7V4.3A1.44,1.44,0,0,1,6.67,2.87H8A1.44,1.44,0,0,1,9.47,4.3V31.7A1.44,1.44,0,0,1,8,33.13Zm7.1,0H13.77a1.44,1.44,0,0,1-1.43-1.43V4.3a1.44,1.44,0,0,1,1.43-1.43h1.36A1.44,1.44,0,0,1,16.57,4.3V31.7a1.44,1.44,0,0,1-1.43,1.43Zm7.1,0H20.87a1.44,1.44,0,0,1-1.43-1.43V4.3a1.44,1.44,0,0,1,1.43-1.43h1.36A1.44,1.44,0,0,1,23.66,4.3V31.7a1.44,1.44,0,0,1-1.43,1.43Zm8.53-1.43a1.44,1.44,0,0,1-1.43,1.43H28a1.44,1.44,0,0,1-1.43-1.43V4.3A1.44,1.44,0,0,1,28,2.87h1.36A1.44,1.44,0,0,1,30.76,4.3ZM40.23,9.47H38.37V5.23h1.86Zm0,0"/></svg>